<svg width="170" height="240" viewBox="0 0 170 240" fill="none" xmlns="http://www.w3.org/2000/svg">
<rect width="170" height="240" fill="white"/>
<path d="M85 14.1665C57.5875 14.1665 35.4167 36.3373 35.4167 63.7498C35.4167 100.937 85 155.833 85 155.833C85 155.833 134.583 100.937 134.583 63.7498C134.583 36.3373 112.413 14.1665 85 14.1665ZM49.5834 63.7498C49.5834 44.1998 65.45 28.3332 85 28.3332C104.55 28.3332 120.417 44.1998 120.417 63.7498C120.417 84.1498 100.017 114.679 85 133.733C70.2667 114.821 49.5834 83.9373 49.5834 63.7498Z" fill="#D90426"/>
<path d="M85 81.4582C94.7801 81.4582 102.708 73.5299 102.708 63.7498C102.708 53.9698 94.7801 46.0415 85 46.0415C75.22 46.0415 67.2917 53.9698 67.2917 63.7498C67.2917 73.5299 75.22 81.4582 85 81.4582Z" fill="#D90426"/>
<path d="M43.938 215.547V225H21.6211V215.547H25.918V191.726H21.6211V182.273H43.938V191.726H39.668V215.547H43.938ZM83.7109 206.738V217.239H87.4438V225H70.8203V206.685C70.8203 205.915 70.5697 205.234 70.0684 204.644C69.585 204.053 68.9941 203.757 68.2959 203.757C66.9889 203.757 66.1654 204.411 65.8252 205.718C65.4671 207.061 65.2881 208.94 65.2881 211.357V217.239H65.3418V225H48.5571V217.239H52.4512V204.536H48.5571V197.285L65.2881 195.674V199.702C66.5234 198.234 67.9289 197.196 69.5044 196.587C71.0799 195.978 72.8613 195.674 74.8486 195.674C80.7568 195.674 83.7109 199.362 83.7109 206.738ZM112.688 225H90.3711V216.917H94.668V204.106H90.3711V196.238H94.668V193.66C94.668 186.427 97.8548 182.81 104.229 182.81C105.625 182.81 107.129 182.944 108.74 183.213C110.352 183.464 111.667 183.75 112.688 184.072V191.995C111.345 191.78 110.414 191.672 109.895 191.672C108.319 191.672 107.532 192.863 107.532 195.244V196.238H112.688V204.106H107.532V216.917H112.688V225ZM133.447 225.483C130.189 225.483 127.351 224.884 124.934 223.684C122.481 222.502 120.575 220.766 119.214 218.474C117.853 216.182 117.173 213.461 117.173 210.31C117.173 207.177 117.853 204.518 119.214 202.334C120.575 200.132 122.481 198.476 124.934 197.366C127.387 196.238 130.225 195.674 133.447 195.674C136.759 195.674 139.633 196.247 142.068 197.393C144.521 198.538 146.418 200.203 147.761 202.388C149.104 204.554 149.775 207.195 149.775 210.31C149.775 213.461 149.104 216.182 147.761 218.474C146.401 220.766 144.485 222.511 142.014 223.711C139.561 224.893 136.706 225.483 133.447 225.483ZM133.447 217.642C134.629 217.642 135.506 217.06 136.079 215.896C136.634 214.768 136.912 212.906 136.912 210.31C136.912 207.929 136.634 206.21 136.079 205.154C135.542 204.08 134.665 203.542 133.447 203.542C132.284 203.542 131.424 204.08 130.869 205.154C130.314 206.21 130.037 207.929 130.037 210.31C130.037 212.852 130.323 214.714 130.896 215.896C131.469 217.06 132.319 217.642 133.447 217.642Z" fill="black"/>
</svg>
