<svg width="170" height="240" viewBox="0 0 170 240" fill="none" xmlns="http://www.w3.org/2000/svg">
<rect width="170" height="240" fill="white"/>
<path d="M36.4453 218.547V228H12.4097V218.547H17.5928V194.726H12.4097V185.273H47.6709V202.541H39.9097L38.2178 194.726H31.3428V202.81H37.3315V209.685H31.3428V218.547H36.4453ZM64.4287 228.483C61.1702 228.483 58.3325 227.884 55.9155 226.684C53.4627 225.502 51.556 223.766 50.1953 221.474C48.8346 219.182 48.1543 216.461 48.1543 213.31C48.1543 210.177 48.8346 207.518 50.1953 205.334C51.556 203.132 53.4627 201.476 55.9155 200.366C58.3683 199.238 61.2061 198.674 64.4287 198.674C67.7409 198.674 70.6144 199.247 73.0493 200.393C75.5021 201.538 77.3999 203.203 78.7427 205.388C80.0854 207.554 80.7568 210.195 80.7568 213.31C80.7568 216.461 80.0854 219.182 78.7427 221.474C77.382 223.766 75.4663 225.511 72.9956 226.711C70.5428 227.893 67.6872 228.483 64.4287 228.483ZM64.4287 220.642C65.6104 220.642 66.4876 220.06 67.0605 218.896C67.6156 217.768 67.8931 215.906 67.8931 213.31C67.8931 210.929 67.6156 209.21 67.0605 208.154C66.5234 207.08 65.6462 206.542 64.4287 206.542C63.265 206.542 62.4056 207.08 61.8506 208.154C61.2956 209.21 61.0181 210.929 61.0181 213.31C61.0181 215.852 61.3045 217.714 61.8774 218.896C62.4504 220.06 63.3008 220.642 64.4287 220.642ZM101.113 228.483C97.8548 228.483 95.0171 227.884 92.6001 226.684C90.1473 225.502 88.2406 223.766 86.8799 221.474C85.5192 219.182 84.8389 216.461 84.8389 213.31C84.8389 210.177 85.5192 207.518 86.8799 205.334C88.2406 203.132 90.1473 201.476 92.6001 200.366C95.0529 199.238 97.8906 198.674 101.113 198.674C104.425 198.674 107.299 199.247 109.734 200.393C112.187 201.538 114.084 203.203 115.427 205.388C116.77 207.554 117.441 210.195 117.441 213.31C117.441 216.461 116.77 219.182 115.427 221.474C114.067 223.766 112.151 225.511 109.68 226.711C107.227 227.893 104.372 228.483 101.113 228.483ZM101.113 220.642C102.295 220.642 103.172 220.06 103.745 218.896C104.3 217.768 104.578 215.906 104.578 213.31C104.578 210.929 104.3 209.21 103.745 208.154C103.208 207.08 102.331 206.542 101.113 206.542C99.9495 206.542 99.0902 207.08 98.5352 208.154C97.9801 209.21 97.7026 210.929 97.7026 213.31C97.7026 215.852 97.9891 217.714 98.562 218.896C99.1349 220.06 99.9854 220.642 101.113 220.642ZM133.904 228.483C131.308 228.483 129.061 227.794 127.163 226.416C125.283 225.037 123.851 223.193 122.866 220.883C121.899 218.556 121.416 215.996 121.416 213.203C121.416 210.678 121.917 208.288 122.92 206.032C123.923 203.812 125.337 202.031 127.163 200.688C129.007 199.345 131.182 198.674 133.689 198.674C135.515 198.674 137.082 198.969 138.389 199.56C139.696 200.151 140.913 201.028 142.041 202.192V195.156H137.744V187.851L154.958 186.079V219.917H158.369V228H141.826V224.536C140.949 225.717 139.83 226.666 138.469 227.382C137.109 228.081 135.587 228.448 133.904 228.483ZM138.201 220.642C139.042 220.642 139.803 220.445 140.483 220.051C141.164 219.639 141.683 219.156 142.041 218.601V208.422C141.629 207.939 141.074 207.509 140.376 207.133C139.696 206.739 138.971 206.542 138.201 206.542C136.804 206.542 135.667 207.115 134.79 208.261C133.913 209.389 133.474 211.036 133.474 213.203C133.474 215.405 133.877 217.195 134.683 218.574C135.488 219.952 136.661 220.642 138.201 220.642Z" fill="black"/>
<path d="M85 14.1665C57.5875 14.1665 35.4166 36.3373 35.4166 63.7498C35.4166 100.937 85 155.833 85 155.833C85 155.833 134.583 100.937 134.583 63.7498C134.583 36.3373 112.412 14.1665 85 14.1665ZM49.5833 63.7498C49.5833 44.1998 65.45 28.3332 85 28.3332C104.55 28.3332 120.417 44.1998 120.417 63.7498C120.417 84.1498 100.017 114.679 85 133.733C70.2666 114.821 49.5833 83.9373 49.5833 63.7498Z" fill="#008766"/>
<path d="M85 81.4582C94.78 81.4582 102.708 73.5299 102.708 63.7498C102.708 53.9698 94.78 46.0415 85 46.0415C75.2199 46.0415 67.2916 53.9698 67.2916 63.7498C67.2916 73.5299 75.2199 81.4582 85 81.4582Z" fill="#008766"/>
</svg>
