<svg width="170" height="240" viewBox="0 0 170 240" fill="none" xmlns="http://www.w3.org/2000/svg">
<rect width="170" height="240" fill="white"/>
<path d="M45.415 218.332V228H21.4868V218.332H25.8911V194.726H22.1045L20.9497 202.084H13.4033V185.273H53.606V202.084H46.0864L44.9316 194.726H41.0107V218.332H45.415ZM65.9595 228.483C64.1333 228.483 62.4772 228.125 60.9912 227.409C59.4873 226.711 58.2878 225.699 57.3926 224.375C56.4974 223.05 56.0498 221.51 56.0498 219.755C56.0498 217.858 56.578 216.246 57.6343 214.921C58.6906 213.632 60.0692 212.666 61.77 212.021C63.4888 211.376 65.3418 211.054 67.3291 211.054C69.6745 211.054 71.9303 211.403 74.0967 212.102V210.893C74.0967 209.461 73.488 208.369 72.2705 207.617C71.071 206.865 69.4417 206.489 67.3828 206.489C66.5055 206.489 65.5208 206.596 64.4287 206.811C63.3366 207.026 62.2713 207.321 61.2329 207.697C60.1945 208.073 59.2904 208.494 58.5205 208.959L57.7417 208.637V200.822C59.908 200.052 62.1191 199.506 64.375 199.184C66.6309 198.844 68.7345 198.674 70.686 198.674C81.5715 198.674 87.0142 201.735 87.0142 207.858V219.917H89.5386V228H75.7886L74.5801 223.596C73.8102 225.1 72.6107 226.29 70.9814 227.167C69.3522 228.045 67.6782 228.483 65.9595 228.483ZM71.0083 221.608C71.5991 221.608 72.1989 221.51 72.8076 221.313C73.4342 221.116 73.8639 220.91 74.0967 220.695V216.184C73.8281 216.148 73.3984 216.04 72.8076 215.861C72.1989 215.7 71.6707 215.62 71.2231 215.62C70.2743 215.62 69.5133 215.915 68.9404 216.506C68.3854 217.097 68.1079 217.884 68.1079 218.869C68.1079 219.603 68.3675 220.248 68.8867 220.803C69.4238 221.34 70.131 221.608 71.0083 221.608ZM115.669 219.917V228H93.9429V219.917H98.6694V195.156H93.9429V187.851L111.533 186.079V219.917H115.669ZM152.166 207.536L147.546 211.403L153.105 219.917H157.322V228H144.512L136.643 216.237V228H119.053V219.917H123.779V195.156H119.053V187.851L136.643 186.079V212.209L142.256 207.536H139.302V199.238H156.462V207.536H152.166Z" fill="black"/>
<path d="M85 14.1665C57.5875 14.1665 35.4166 36.3373 35.4166 63.7498C35.4166 100.937 85 155.833 85 155.833C85 155.833 134.583 100.937 134.583 63.7498C134.583 36.3373 112.412 14.1665 85 14.1665ZM49.5833 63.7498C49.5833 44.1998 65.45 28.3332 85 28.3332C104.55 28.3332 120.417 44.1998 120.417 63.7498C120.417 84.1498 100.017 114.679 85 133.733C70.2666 114.821 49.5833 83.9373 49.5833 63.7498Z" fill="#772AB5"/>
<path d="M85 81.4582C94.78 81.4582 102.708 73.5299 102.708 63.7498C102.708 53.9698 94.78 46.0415 85 46.0415C75.2199 46.0415 67.2916 53.9698 67.2916 63.7498C67.2916 73.5299 75.2199 81.4582 85 81.4582Z" fill="#772AB5"/>
</svg>
