<svg width="753" height="549" viewBox="0 0 753 549" fill="none" xmlns="http://www.w3.org/2000/svg">
<rect width="753" height="549" fill="#6356E5" fill-opacity="0.7"/>
<path d="M131.513 143.364H149.364L164.506 180.287H165.205L180.347 143.364H198.197V203H184.161V166.368H183.666L169.339 202.621H160.371L146.044 166.164H145.549V203H131.513V143.364ZM219.796 203.757C216.942 203.757 214.409 203.281 212.196 202.33C210.002 201.36 208.265 199.904 206.983 197.962C205.722 196.002 205.091 193.546 205.091 190.595C205.091 188.11 205.528 186.014 206.401 184.305C207.275 182.597 208.478 181.209 210.012 180.141C211.546 179.074 213.312 178.268 215.312 177.724C217.311 177.161 219.447 176.783 221.718 176.589C224.261 176.356 226.309 176.113 227.862 175.861C229.415 175.589 230.541 175.21 231.24 174.725C231.958 174.22 232.317 173.512 232.317 172.599V172.454C232.317 170.959 231.803 169.804 230.774 168.989C229.745 168.173 228.357 167.766 226.61 167.766C224.727 167.766 223.213 168.173 222.067 168.989C220.922 169.804 220.194 170.93 219.883 172.366L206.751 171.901C207.139 169.183 208.139 166.756 209.75 164.621C211.381 162.466 213.613 160.777 216.447 159.554C219.301 158.312 222.727 157.69 226.726 157.69C229.58 157.69 232.211 158.03 234.618 158.71C237.025 159.37 239.122 160.34 240.907 161.621C242.693 162.883 244.072 164.436 245.042 166.281C246.032 168.125 246.528 170.231 246.528 172.599V203H233.133V196.768H232.783C231.987 198.283 230.968 199.564 229.726 200.612C228.503 201.661 227.056 202.447 225.387 202.971C223.737 203.495 221.873 203.757 219.796 203.757ZM224.193 194.439C225.727 194.439 227.105 194.128 228.328 193.507C229.57 192.886 230.56 192.032 231.298 190.945C232.036 189.838 232.405 188.557 232.405 187.101V182.849C231.997 183.063 231.502 183.257 230.92 183.432C230.357 183.607 229.735 183.772 229.056 183.927C228.376 184.082 227.678 184.218 226.959 184.335C226.241 184.451 225.552 184.558 224.892 184.655C223.552 184.868 222.407 185.198 221.456 185.645C220.524 186.091 219.806 186.674 219.301 187.392C218.816 188.091 218.573 188.926 218.573 189.896C218.573 191.372 219.097 192.498 220.145 193.274C221.213 194.051 222.562 194.439 224.193 194.439ZM255.234 219.773V158.273H269.328V165.931H269.765C270.347 164.572 271.172 163.262 272.24 162C273.327 160.738 274.705 159.709 276.375 158.913C278.064 158.098 280.083 157.69 282.432 157.69C285.538 157.69 288.44 158.506 291.138 160.136C293.856 161.767 296.05 164.281 297.719 167.678C299.389 171.076 300.224 175.405 300.224 180.665C300.224 185.732 299.418 189.974 297.807 193.391C296.215 196.807 294.06 199.37 291.342 201.078C288.644 202.786 285.644 203.641 282.344 203.641C280.092 203.641 278.141 203.272 276.491 202.534C274.841 201.796 273.453 200.826 272.327 199.622C271.221 198.419 270.367 197.128 269.765 195.749H269.474V219.773H255.234ZM269.182 180.636C269.182 183.044 269.503 185.14 270.143 186.926C270.803 188.712 271.745 190.1 272.968 191.09C274.21 192.061 275.695 192.546 277.423 192.546C279.17 192.546 280.655 192.061 281.878 191.09C283.101 190.1 284.023 188.712 284.645 186.926C285.285 185.14 285.606 183.044 285.606 180.636C285.606 178.229 285.285 176.142 284.645 174.376C284.023 172.609 283.101 171.241 281.878 170.27C280.675 169.299 279.19 168.814 277.423 168.814C275.676 168.814 274.191 169.29 272.968 170.241C271.745 171.192 270.803 172.551 270.143 174.317C269.503 176.084 269.182 178.19 269.182 180.636ZM185.646 263.97H171.087C170.893 262.475 170.495 261.126 169.893 259.923C169.291 258.719 168.495 257.69 167.505 256.836C166.515 255.982 165.34 255.331 163.982 254.885C162.642 254.419 161.157 254.186 159.526 254.186C156.634 254.186 154.139 254.895 152.043 256.312C149.965 257.729 148.364 259.777 147.238 262.456C146.131 265.135 145.578 268.377 145.578 272.182C145.578 276.142 146.141 279.462 147.267 282.141C148.412 284.8 150.014 286.809 152.072 288.168C154.149 289.508 156.605 290.178 159.439 290.178C161.031 290.178 162.477 289.974 163.778 289.566C165.098 289.158 166.253 288.566 167.243 287.79C168.252 286.994 169.077 286.033 169.718 284.907C170.378 283.762 170.834 282.471 171.087 281.034L185.646 281.121C185.394 283.762 184.627 286.363 183.346 288.925C182.084 291.488 180.347 293.827 178.134 295.943C175.92 298.04 173.222 299.709 170.038 300.952C166.874 302.194 163.244 302.815 159.148 302.815C153.751 302.815 148.917 301.631 144.646 299.263C140.395 296.875 137.036 293.4 134.571 288.838C132.106 284.276 130.873 278.724 130.873 272.182C130.873 265.62 132.125 260.058 134.629 255.496C137.134 250.934 140.521 247.469 144.792 245.101C149.063 242.732 153.848 241.548 159.148 241.548C162.759 241.548 166.098 242.053 169.165 243.062C172.232 244.053 174.93 245.509 177.26 247.43C179.589 249.333 181.482 251.672 182.938 254.448C184.394 257.224 185.297 260.398 185.646 263.97ZM214.773 302.844C210.075 302.844 206.037 301.884 202.659 299.962C199.301 298.02 196.709 295.322 194.884 291.866C193.079 288.392 192.176 284.363 192.176 279.782C192.176 275.181 193.079 271.153 194.884 267.697C196.709 264.223 199.301 261.524 202.659 259.602C206.037 257.661 210.075 256.69 214.773 256.69C219.471 256.69 223.499 257.661 226.857 259.602C230.235 261.524 232.827 264.223 234.632 267.697C236.457 271.153 237.369 275.181 237.369 279.782C237.369 284.363 236.457 288.392 234.632 291.866C232.827 295.322 230.235 298.02 226.857 299.962C223.499 301.884 219.471 302.844 214.773 302.844ZM214.86 292.099C216.569 292.099 218.015 291.575 219.199 290.527C220.383 289.479 221.286 288.023 221.907 286.159C222.548 284.295 222.868 282.141 222.868 279.695C222.868 277.21 222.548 275.036 221.907 273.172C221.286 271.308 220.383 269.852 219.199 268.804C218.015 267.756 216.569 267.232 214.86 267.232C213.094 267.232 211.599 267.756 210.376 268.804C209.172 269.852 208.25 271.308 207.61 273.172C206.988 275.036 206.678 277.21 206.678 279.695C206.678 282.141 206.988 284.295 207.61 286.159C208.25 288.023 209.172 289.479 210.376 290.527C211.599 291.575 213.094 292.099 214.86 292.099ZM244.664 302V257.273H258.204V265.484H258.699C259.631 262.767 261.204 260.621 263.417 259.049C265.63 257.477 268.27 256.69 271.337 256.69C274.443 256.69 277.103 257.486 279.316 259.078C281.529 260.67 282.936 262.805 283.538 265.484H284.004C284.839 262.825 286.47 260.699 288.896 259.107C291.323 257.496 294.186 256.69 297.486 256.69C301.718 256.69 305.154 258.049 307.795 260.767C310.435 263.465 311.755 267.173 311.755 271.891V302H297.515V275.152C297.515 272.92 296.943 271.221 295.797 270.056C294.652 268.872 293.167 268.28 291.342 268.28C289.381 268.28 287.838 268.92 286.712 270.202C285.606 271.464 285.052 273.162 285.052 275.298V302H271.366V275.006C271.366 272.929 270.803 271.289 269.677 270.085C268.551 268.882 267.066 268.28 265.222 268.28C263.98 268.28 262.883 268.581 261.932 269.183C260.98 269.765 260.233 270.6 259.689 271.687C259.165 272.774 258.903 274.055 258.903 275.531V302H244.664ZM320.578 302V257.273H334.118V265.484H334.613C335.545 262.767 337.118 260.621 339.331 259.049C341.544 257.477 344.184 256.69 347.251 256.69C350.357 256.69 353.017 257.486 355.23 259.078C357.443 260.67 358.85 262.805 359.452 265.484H359.918C360.753 262.825 362.384 260.699 364.81 259.107C367.237 257.496 370.1 256.69 373.4 256.69C377.632 256.69 381.068 258.049 383.709 260.767C386.349 263.465 387.669 267.173 387.669 271.891V302H373.43V275.152C373.43 272.92 372.857 271.221 371.711 270.056C370.566 268.872 369.081 268.28 367.256 268.28C365.296 268.28 363.752 268.92 362.626 270.202C361.52 271.464 360.966 273.162 360.966 275.298V302H347.28V275.006C347.28 272.929 346.717 271.289 345.591 270.085C344.465 268.882 342.98 268.28 341.136 268.28C339.894 268.28 338.797 268.581 337.846 269.183C336.894 269.765 336.147 270.6 335.604 271.687C335.079 272.774 334.817 274.055 334.817 275.531V302H320.578ZM425.349 282.694V257.273H439.559V302H425.99V293.672H425.524C424.534 296.409 422.845 298.583 420.457 300.195C418.089 301.786 415.225 302.582 411.867 302.582C408.819 302.582 406.14 301.884 403.83 300.486C401.52 299.088 399.724 297.137 398.443 294.633C397.162 292.109 396.511 289.158 396.492 285.781V257.273H410.731V282.985C410.751 285.412 411.391 287.324 412.653 288.722C413.915 290.119 415.633 290.818 417.807 290.818C419.224 290.818 420.496 290.508 421.622 289.886C422.767 289.246 423.67 288.324 424.33 287.12C425.01 285.897 425.349 284.422 425.349 282.694ZM462.862 276.491V302H448.623V257.273H462.163V265.484H462.658C463.648 262.747 465.337 260.602 467.725 259.049C470.113 257.477 472.957 256.69 476.257 256.69C479.402 256.69 482.129 257.399 484.44 258.816C486.769 260.214 488.575 262.174 489.856 264.698C491.156 267.202 491.797 270.134 491.778 273.492V302H477.538V276.288C477.558 273.803 476.927 271.862 475.646 270.464C474.384 269.066 472.627 268.367 470.375 268.367C468.88 268.367 467.56 268.697 466.415 269.357C465.289 269.998 464.415 270.92 463.794 272.124C463.192 273.327 462.882 274.783 462.862 276.491ZM500.594 302V257.273H514.833V302H500.594ZM507.728 252.06C505.728 252.06 504.01 251.4 502.574 250.08C501.137 248.741 500.419 247.129 500.419 245.246C500.419 243.383 501.137 241.791 502.574 240.471C504.01 239.131 505.728 238.462 507.728 238.462C509.747 238.462 511.465 239.131 512.882 240.471C514.318 241.791 515.037 243.383 515.037 245.246C515.037 247.129 514.318 248.741 512.882 250.08C511.465 251.4 509.747 252.06 507.728 252.06ZM549.143 257.273V267.756H520.926V257.273H549.143ZM526.837 246.557H541.077V287.935C541.077 288.809 541.213 289.518 541.484 290.061C541.776 290.585 542.193 290.964 542.737 291.197C543.28 291.41 543.93 291.517 544.688 291.517C545.231 291.517 545.804 291.469 546.406 291.371C547.027 291.255 547.493 291.158 547.803 291.08L549.958 301.359C549.279 301.554 548.318 301.796 547.075 302.087C545.852 302.379 544.387 302.563 542.678 302.641C539.339 302.796 536.476 302.408 534.088 301.476C531.72 300.525 529.905 299.049 528.643 297.05C527.4 295.05 526.799 292.536 526.837 289.508V246.557ZM565.115 318.773C563.406 318.773 561.795 318.637 560.281 318.365C558.767 318.113 557.466 317.773 556.379 317.346L559.524 307.009C560.922 307.474 562.183 307.746 563.309 307.824C564.455 307.902 565.435 307.717 566.25 307.271C567.085 306.844 567.726 306.077 568.172 304.97L568.725 303.631L552.826 257.273H567.735L575.976 289.188H576.442L584.799 257.273H599.796L582.936 306.281C582.12 308.727 580.965 310.881 579.471 312.745C577.995 314.628 576.083 316.103 573.734 317.171C571.404 318.239 568.531 318.773 565.115 318.773Z" fill="white"/>
</svg>
