<svg width="85" height="85" viewBox="0 0 85 85" fill="none" xmlns="http://www.w3.org/2000/svg">
<path d="M62.5768 19.1302L58.7872 15.3407L39.1309 34.9969V38.8219H42.9559L62.5768 19.1302ZM59.4601 6.87608C59.9509 6.37922 60.5355 5.98474 61.18 5.7155C61.8244 5.44626 62.5159 5.30762 63.2143 5.30762C63.9127 5.30762 64.6042 5.44626 65.2486 5.7155C65.893 5.98474 66.4776 6.37922 66.9684 6.87608L71.0414 10.949C73.1309 13.0386 73.1309 16.4032 71.0414 18.4573L45.258 44.2407H33.6414V32.6948L59.4601 6.87608ZM46.8164 9.49692L40.3705 15.9428C28.683 16.1198 19.4747 25.1511 19.4747 37.9011C19.4747 46.1886 26.3809 57.1677 40.7247 70.2719C55.0684 57.1677 61.9747 46.224 61.9747 37.9011V37.5469L68.3497 31.1719C68.8101 33.2969 69.058 35.5636 69.058 37.9011C69.058 49.6594 59.6018 63.5782 40.7247 79.6927C21.8476 63.5782 12.3914 49.6594 12.3914 37.9011C12.3914 20.2636 25.8497 8.85942 40.7247 8.85942C42.7789 8.85942 44.833 9.07192 46.8164 9.49692Z" fill="#E63044"/>
</svg>
