<svg width="67" height="67" viewBox="0 0 67 67" fill="none" xmlns="http://www.w3.org/2000/svg">
<path d="M46.0625 7.88623C41.205 7.88623 36.5429 10.1475 33.5 13.7208C30.4571 10.1475 25.795 7.88623 20.9375 7.88623C12.3392 7.88623 5.58334 14.6421 5.58334 23.2404C5.58334 33.7929 15.075 42.3912 29.4521 55.4562L33.5 59.1133L37.5479 55.4283C51.925 42.3912 61.4167 33.7929 61.4167 23.2404C61.4167 14.6421 54.6608 7.88623 46.0625 7.88623ZM33.7792 51.2966L33.5 51.5758L33.2208 51.2966C19.9325 39.2646 11.1667 31.3083 11.1667 23.2404C11.1667 17.6571 15.3542 13.4696 20.9375 13.4696C25.2367 13.4696 29.4242 16.2333 30.9038 20.0579H36.1242C37.5758 16.2333 41.7633 13.4696 46.0625 13.4696C51.6458 13.4696 55.8333 17.6571 55.8333 23.2404C55.8333 31.3083 47.0675 39.2646 33.7792 51.2966Z" fill="white"/>
</svg>
