<svg width="170" height="170" viewBox="0 0 170 170" fill="none" xmlns="http://www.w3.org/2000/svg">
<path d="M85 14.1665C57.5875 14.1665 35.4166 36.3373 35.4166 63.7498C35.4166 100.937 85 155.833 85 155.833C85 155.833 134.583 100.937 134.583 63.7498C134.583 36.3373 112.412 14.1665 85 14.1665ZM49.5833 63.7498C49.5833 44.1998 65.45 28.3332 85 28.3332C104.55 28.3332 120.417 44.1998 120.417 63.7498C120.417 84.1498 100.017 114.679 85 133.733C70.2666 114.821 49.5833 83.9373 49.5833 63.7498Z" fill="#D90426"/>
<path d="M85 81.4582C94.78 81.4582 102.708 73.5299 102.708 63.7498C102.708 53.9698 94.78 46.0415 85 46.0415C75.2199 46.0415 67.2916 53.9698 67.2916 63.7498C67.2916 73.5299 75.2199 81.4582 85 81.4582Z" fill="#D90426"/>
</svg>
