<svg width="50" height="50" viewBox="0 0 50 50" fill="none" xmlns="http://www.w3.org/2000/svg">
<path d="M40.4837 27.0416C40.567 26.375 40.6295 25.7083 40.6295 25C40.6295 24.2916 40.567 23.625 40.4837 22.9583L44.8795 19.5208C45.2754 19.2083 45.3795 18.6458 45.1295 18.1875L40.9629 10.9791C40.7754 10.6458 40.4212 10.4583 40.0462 10.4583C39.9212 10.4583 39.7962 10.4791 39.692 10.5208L34.5045 12.6041C33.4212 11.7708 32.2545 11.0833 30.9837 10.5625L30.192 5.04163C30.1295 4.54163 29.692 4.16663 29.1712 4.16663H20.8379C20.317 4.16663 19.8795 4.54163 19.817 5.04163L19.0254 10.5625C17.7545 11.0833 16.5879 11.7916 15.5045 12.6041L10.317 10.5208C10.192 10.4791 10.067 10.4583 9.94205 10.4583C9.58788 10.4583 9.23372 10.6458 9.04622 10.9791L4.87955 18.1875C4.60871 18.6458 4.73372 19.2083 5.12955 19.5208L9.52538 22.9583C9.44205 23.625 9.37955 24.3125 9.37955 25C9.37955 25.6875 9.44205 26.375 9.52538 27.0416L5.12955 30.4791C4.73372 30.7916 4.62955 31.3541 4.87955 31.8125L9.04622 39.0208C9.23372 39.3541 9.58788 39.5416 9.96288 39.5416C10.0879 39.5416 10.2129 39.5208 10.317 39.4791L15.5045 37.3958C16.5879 38.2291 17.7545 38.9166 19.0254 39.4375L19.817 44.9583C19.8795 45.4583 20.317 45.8333 20.8379 45.8333H29.1712C29.692 45.8333 30.1295 45.4583 30.192 44.9583L30.9837 39.4375C32.2545 38.9166 33.4212 38.2083 34.5045 37.3958L39.692 39.4791C39.817 39.5208 39.942 39.5416 40.067 39.5416C40.4212 39.5416 40.7754 39.3541 40.9629 39.0208L45.1295 31.8125C45.3795 31.3541 45.2754 30.7916 44.8795 30.4791L40.4837 27.0416ZM36.3587 23.4791C36.442 24.125 36.4629 24.5625 36.4629 25C36.4629 25.4375 36.4212 25.8958 36.3587 26.5208L36.067 28.875L37.9212 30.3333L40.1712 32.0833L38.7129 34.6041L36.067 33.5416L33.9004 32.6666L32.0254 34.0833C31.1295 34.75 30.2754 35.25 29.4212 35.6041L27.2129 36.5L26.8795 38.8541L26.4629 41.6666H23.5462L22.817 36.5L20.6087 35.6041C19.7129 35.2291 18.8795 34.75 18.0462 34.125L16.1504 32.6666L13.942 33.5625L11.2962 34.625L9.83788 32.1041L12.0879 30.3541L13.942 28.8958L13.6504 26.5416C13.5879 25.8958 13.5462 25.4166 13.5462 25C13.5462 24.5833 13.5879 24.1041 13.6504 23.4791L13.942 21.125L12.0879 19.6666L9.83788 17.9166L11.2962 15.3958L13.942 16.4583L16.1087 17.3333L17.9837 15.9166C18.8795 15.25 19.7337 14.75 20.5879 14.3958L22.7962 13.5L23.1295 11.1458L23.5462 8.33329H26.442L27.1712 13.5L29.3795 14.3958C30.2754 14.7708 31.1087 15.25 31.942 15.875L33.8379 17.3333L36.0462 16.4375L38.692 15.375L40.1504 17.8958L37.9212 19.6666L36.067 21.125L36.3587 23.4791ZM25.0045 16.6666C20.4004 16.6666 16.6712 20.3958 16.6712 25C16.6712 29.6041 20.4004 33.3333 25.0045 33.3333C29.6087 33.3333 33.3379 29.6041 33.3379 25C33.3379 20.3958 29.6087 16.6666 25.0045 16.6666ZM25.0045 29.1666C22.7129 29.1666 20.8379 27.2916 20.8379 25C20.8379 22.7083 22.7129 20.8333 25.0045 20.8333C27.2962 20.8333 29.1712 22.7083 29.1712 25C29.1712 27.2916 27.2962 29.1666 25.0045 29.1666Z" fill="white"/>
</svg>
