<svg width="50" height="50" viewBox="0 0 50 50" fill="none" xmlns="http://www.w3.org/2000/svg">
<path d="M25 4.16663C13.5 4.16663 4.16663 13.5 4.16663 25C4.16663 36.5 13.5 45.8333 25 45.8333C36.5 45.8333 45.8333 36.5 45.8333 25C45.8333 13.5 36.5 4.16663 25 4.16663ZM14.7291 38.0833C15.625 36.2083 21.0833 34.375 25 34.375C28.9166 34.375 34.3958 36.2083 35.2708 38.0833C32.4375 40.3333 28.875 41.6666 25 41.6666C21.125 41.6666 17.5625 40.3333 14.7291 38.0833ZM38.25 35.0625C35.2708 31.4375 28.0416 30.2083 25 30.2083C21.9583 30.2083 14.7291 31.4375 11.75 35.0625C9.62496 32.2708 8.33329 28.7916 8.33329 25C8.33329 15.8125 15.8125 8.33329 25 8.33329C34.1875 8.33329 41.6666 15.8125 41.6666 25C41.6666 28.7916 40.375 32.2708 38.25 35.0625ZM25 12.5C20.9583 12.5 17.7083 15.75 17.7083 19.7916C17.7083 23.8333 20.9583 27.0833 25 27.0833C29.0416 27.0833 32.2916 23.8333 32.2916 19.7916C32.2916 15.75 29.0416 12.5 25 12.5ZM25 22.9166C23.2708 22.9166 21.875 21.5208 21.875 19.7916C21.875 18.0625 23.2708 16.6666 25 16.6666C26.7291 16.6666 28.125 18.0625 28.125 19.7916C28.125 21.5208 26.7291 22.9166 25 22.9166Z" fill="white"/>
</svg>
