<svg width="50" height="50" viewBox="0 0 50 50" fill="none" xmlns="http://www.w3.org/2000/svg">
<path d="M34.375 5.88538C30.75 5.88538 27.2708 7.57288 25 10.2395C22.7291 7.57288 19.25 5.88538 15.625 5.88538C9.20829 5.88538 4.16663 10.927 4.16663 17.3437C4.16663 25.2187 11.25 31.6354 21.9791 41.3854L25 44.1145L28.0208 41.3645C38.75 31.6354 45.8333 25.2187 45.8333 17.3437C45.8333 10.927 40.7916 5.88538 34.375 5.88538ZM25.2083 38.2812L25 38.4895L24.7916 38.2812C14.875 29.302 8.33329 23.3645 8.33329 17.3437C8.33329 13.177 11.4583 10.052 15.625 10.052C18.8333 10.052 21.9583 12.1145 23.0625 14.9687H26.9583C28.0416 12.1145 31.1666 10.052 34.375 10.052C38.5416 10.052 41.6666 13.177 41.6666 17.3437C41.6666 23.3645 35.125 29.302 25.2083 38.2812Z" fill="white"/>
</svg>
