<svg width="85" height="85" viewBox="0 0 85 85" fill="none" xmlns="http://www.w3.org/2000/svg">
<g filter="url(#filter0_d_434_721)">
<rect x="4" width="77" height="77" rx="20" fill="white"/>
<path d="M64.9583 41.7082H20.0416V35.2915H64.9583V41.7082Z" fill="white"/>
</g>
<path d="M42.5 27.3332C36.3304 27.3332 31.3333 32.3303 31.3333 38.4998C31.3333 44.6694 36.3304 49.6665 42.5 49.6665C48.6695 49.6665 53.6666 44.6694 53.6666 38.4998C53.6666 32.3303 48.6695 27.3332 42.5 27.3332ZM67.4575 35.7082C66.1733 24.0669 56.9329 14.8265 45.2916 13.5423V7.7915H39.7083V13.5423C28.067 14.8265 18.8266 24.0669 17.5425 35.7082H11.7916V41.2915H17.5425C18.8266 52.9328 28.067 62.1732 39.7083 63.4573V69.2082H45.2916V63.4573C56.9329 62.1732 66.1733 52.9328 67.4575 41.2915H73.2083V35.7082H67.4575ZM42.5 58.0415C31.6962 58.0415 22.9583 49.3036 22.9583 38.4998C22.9583 27.6961 31.6962 18.9582 42.5 18.9582C53.3037 18.9582 62.0416 27.6961 62.0416 38.4998C62.0416 49.3036 53.3037 58.0415 42.5 58.0415Z" fill="#696EDB"/>
<defs>
<filter id="filter0_d_434_721" x="0" y="0" width="85" height="85" filterUnits="userSpaceOnUse" color-interpolation-filters="sRGB">
<feFlood flood-opacity="0" result="BackgroundImageFix"/>
<feColorMatrix in="SourceAlpha" type="matrix" values="0 0 0 0 0 0 0 0 0 0 0 0 0 0 0 0 0 0 127 0" result="hardAlpha"/>
<feOffset dy="4"/>
<feGaussianBlur stdDeviation="2"/>
<feComposite in2="hardAlpha" operator="out"/>
<feColorMatrix type="matrix" values="0 0 0 0 0 0 0 0 0 0 0 0 0 0 0 0 0 0 0.25 0"/>
<feBlend mode="normal" in2="BackgroundImageFix" result="effect1_dropShadow_434_721"/>
<feBlend mode="normal" in="SourceGraphic" in2="effect1_dropShadow_434_721" result="shape"/>
</filter>
</defs>
</svg>
