<svg width="61" height="75" viewBox="0 0 61 75" fill="none" xmlns="http://www.w3.org/2000/svg">
<path d="M29.8324 15.2498C33.9285 15.2498 37.2491 11.9293 37.2491 7.83317C37.2491 3.73706 33.9285 0.416504 29.8324 0.416504C25.7363 0.416504 22.4158 3.73706 22.4158 7.83317C22.4158 11.9293 25.7363 15.2498 29.8324 15.2498Z" fill="black"/>
<path d="M44.2579 23.0744C42.8116 21.6282 40.327 18.9582 35.5062 18.9582C34.7274 18.9582 30.2404 18.9582 26.087 18.9582C15.8891 18.9211 7.58244 10.6144 7.58244 0.416504H0.165771C0.165771 12.1348 7.99035 22.0732 18.7074 25.2994V74.5832H26.1241V52.3332H33.5408V74.5832H40.9574V30.2686L55.6054 44.9165L60.8341 39.6878L44.2579 23.0744Z" fill="black"/>
</svg>
