<svg width="73" height="73" viewBox="0 0 73 73" fill="none" xmlns="http://www.w3.org/2000/svg">
<path d="M36.5 6.0835C19.71 6.0835 6.08334 19.7102 6.08334 36.5002C6.08334 53.2902 19.71 66.9168 36.5 66.9168C53.29 66.9168 66.9167 53.2902 66.9167 36.5002C66.9167 19.7102 53.29 6.0835 36.5 6.0835ZM21.5046 55.6018C22.8125 52.8643 30.7817 50.1877 36.5 50.1877C42.2183 50.1877 50.2179 52.8643 51.4954 55.6018C47.3588 58.8868 42.1575 60.8335 36.5 60.8335C30.8425 60.8335 25.6413 58.8868 21.5046 55.6018ZM55.845 51.1914C51.4954 45.8989 40.9408 44.1043 36.5 44.1043C32.0592 44.1043 21.5046 45.8989 17.155 51.1914C14.0525 47.1156 12.1667 42.036 12.1667 36.5002C12.1667 23.0864 23.0863 12.1668 36.5 12.1668C49.9138 12.1668 60.8333 23.0864 60.8333 36.5002C60.8333 42.036 58.9475 47.1156 55.845 51.1914ZM36.5 18.2502C30.5992 18.2502 25.8542 22.9952 25.8542 28.896C25.8542 34.7968 30.5992 39.5418 36.5 39.5418C42.4008 39.5418 47.1458 34.7968 47.1458 28.896C47.1458 22.9952 42.4008 18.2502 36.5 18.2502ZM36.5 33.4585C33.9754 33.4585 31.9375 31.4206 31.9375 28.896C31.9375 26.3714 33.9754 24.3335 36.5 24.3335C39.0246 24.3335 41.0625 26.3714 41.0625 28.896C41.0625 31.4206 39.0246 33.4585 36.5 33.4585Z" fill="white"/>
</svg>
