<svg width="65" height="65" viewBox="0 0 65 65" fill="none" xmlns="http://www.w3.org/2000/svg">
<path d="M52.6289 35.154C52.7372 34.2873 52.8185 33.4207 52.8185 32.4998C52.8185 31.579 52.7372 30.7123 52.6289 29.8457L58.3435 25.3769C58.8581 24.9707 58.9935 24.2394 58.6685 23.6436L53.2518 14.2728C53.0081 13.8394 52.5476 13.5957 52.0601 13.5957C51.8976 13.5957 51.7351 13.6228 51.5997 13.6769L44.856 16.3853C43.4476 15.3019 41.931 14.4082 40.2789 13.7311L39.2497 6.554C39.1685 5.904 38.5997 5.4165 37.9226 5.4165H27.0893C26.4122 5.4165 25.8435 5.904 25.7622 6.554L24.7331 13.7311C23.081 14.4082 21.5643 15.329 20.156 16.3853L13.4122 13.6769C13.2497 13.6228 13.0872 13.5957 12.9247 13.5957C12.4643 13.5957 12.0039 13.8394 11.7601 14.2728L6.34347 23.6436C5.99139 24.2394 6.15389 24.9707 6.66847 25.3769L12.3831 29.8457C12.2747 30.7123 12.1935 31.6061 12.1935 32.4998C12.1935 33.3936 12.2747 34.2873 12.3831 35.154L6.66847 39.6228C6.15389 40.029 6.01847 40.7603 6.34347 41.3561L11.7601 50.7269C12.0039 51.1603 12.4643 51.404 12.9518 51.404C13.1143 51.404 13.2768 51.3769 13.4122 51.3228L20.156 48.6144C21.5643 49.6978 23.081 50.5915 24.7331 51.2686L25.7622 58.4457C25.8435 59.0957 26.4122 59.5832 27.0893 59.5832H37.9226C38.5997 59.5832 39.1685 59.0957 39.2497 58.4457L40.2789 51.2686C41.931 50.5915 43.4476 49.6707 44.856 48.6144L51.5997 51.3228C51.7622 51.3769 51.9247 51.404 52.0872 51.404C52.5476 51.404 53.0081 51.1603 53.2518 50.7269L58.6685 41.3561C58.9935 40.7603 58.8581 40.029 58.3435 39.6228L52.6289 35.154ZM47.2664 30.5228C47.3747 31.3623 47.4018 31.9311 47.4018 32.4998C47.4018 33.0686 47.3476 33.6644 47.2664 34.4769L46.8872 37.5373L49.2976 39.4332L52.2226 41.7082L50.3268 44.9853L46.8872 43.604L44.0706 42.4665L41.6331 44.3082C40.4685 45.1748 39.3581 45.8248 38.2476 46.2853L35.3768 47.4498L34.9435 50.5103L34.4018 54.1665H30.6101L29.6622 47.4498L26.7914 46.2853C25.6268 45.7978 24.5435 45.1748 23.4601 44.3623L20.9956 42.4665L18.1247 43.6311L14.6851 45.0123L12.7893 41.7353L15.7143 39.4603L18.1247 37.5644L17.7456 34.504C17.6643 33.6644 17.6101 33.0415 17.6101 32.4998C17.6101 31.9582 17.6643 31.3353 17.7456 30.5228L18.1247 27.4623L15.7143 25.5665L12.7893 23.2915L14.6851 20.0144L18.1247 21.3957L20.9414 22.5332L23.3789 20.6915C24.5435 19.8248 25.6539 19.1748 26.7643 18.7144L29.6351 17.5498L30.0685 14.4894L30.6101 10.8332H34.3747L35.3226 17.5498L38.1935 18.7144C39.3581 19.2019 40.4414 19.8248 41.5247 20.6373L43.9893 22.5332L46.8601 21.3686L50.2997 19.9873L52.1956 23.2644L49.2976 25.5665L46.8872 27.4623L47.2664 30.5228ZM32.506 21.6665C26.5206 21.6665 21.6726 26.5144 21.6726 32.4998C21.6726 38.4853 26.5206 43.3332 32.506 43.3332C38.4914 43.3332 43.3393 38.4853 43.3393 32.4998C43.3393 26.5144 38.4914 21.6665 32.506 21.6665ZM32.506 37.9165C29.5268 37.9165 27.0893 35.479 27.0893 32.4998C27.0893 29.5207 29.5268 27.0832 32.506 27.0832C35.4851 27.0832 37.9226 29.5207 37.9226 32.4998C37.9226 35.479 35.4851 37.9165 32.506 37.9165Z" fill="white"/>
</svg>
