<svg width="75" height="75" viewBox="0 0 75 75" fill="none" xmlns="http://www.w3.org/2000/svg">
<path d="M37.5 6.25C25.4063 6.25 15.625 16.0313 15.625 28.125C15.625 44.5312 37.5 68.75 37.5 68.75C37.5 68.75 59.375 44.5312 59.375 28.125C59.375 16.0313 49.5937 6.25 37.5 6.25ZM21.875 28.125C21.875 19.5 28.875 12.5 37.5 12.5C46.125 12.5 53.125 19.5 53.125 28.125C53.125 37.125 44.125 50.5937 37.5 59C31 50.6562 21.875 37.0312 21.875 28.125Z" fill="#6356E5"/>
<path d="M37.5 35.9375C41.8147 35.9375 45.3125 32.4397 45.3125 28.125C45.3125 23.8103 41.8147 20.3125 37.5 20.3125C33.1853 20.3125 29.6875 23.8103 29.6875 28.125C29.6875 32.4397 33.1853 35.9375 37.5 35.9375Z" fill="#6356E5"/>
</svg>
